#!OML:ASF F:\VICON\USERDATA\INSTALL\rory3\rory3.ASF
:FULLY-SPECIFIED
:DEGREES
1271
root 1.98437 18.9003 -4.33815 -3.66685 -12.0325 2.28637
lowerback 6.1757 0.826172 -3.11261
upperback 0.878036 0.87569 -0.484233
thorax -2.59612 0.462324 1.17518
lowerneck -8.36528 -5.94877 -9.49512
upperneck 13.3129 -7.68085 6.31606
head 6.01773 -3.77971 2.92518
rclavicle 9.6065e-015 6.13748e-015
rhumerus -26.0958 38.7977 -91.8166
rradius 93.6837
rwrist -4.36399
rhand -44.0212 11.2599
rfingers 7.12502
rthumb -16.8416 -18.0297
lclavicle 9.6065e-015 6.13748e-015
lhumerus -15.3465 -50.2538 79.8856
lradius 106.394
lwrist -28.4579
lhand -20.736 41.4337
lfingers 7.12502
lthumb 5.62923 71.3389
rfemur 4.53366 20.5368 15.9931
rtibia 11.9425
rfoot -13.9053 -19.7899
rtoes -3.65788
lfemur 0 0 0
ltibia 0
lfoot 0 0
ltoes 0
1272
root 1.98399 18.8992 -4.33825 -3.67099 -12.004 2.24152
lowerback 6.21559 0.825321 -3.03659
upperback 0.871966 0.877914 -0.487277
thorax -2.6236 0.463119 1.12867
lowerneck -8.39783 -5.97477 -9.46248
upperneck 13.389 -7.71345 6.26329
head 6.04665 -3.79721 2.89884
rclavicle -2.15945e-015 -1.66482e-015
rhumerus -26.0312 38.8055 -91.8448
rradius 93.667
rwrist -4.31122
rhand -44.1751 10.6642
rfingers 7.12502
rthumb -16.9898 -18.6128
lclavicle -2.15945e-015 -1.66482e-015
lhumerus -15.0467 -50.2546 79.6641
lradius 106.381
lwrist -29.2309
lhand -20.3764 41.7415
lfingers 7.12502
lthumb 5.97643 71.6372
rfemur 4.55687 20.4946 16.0465
rtibia 11.8951
rfoot -12.7674 -19.8492
rtoes -6.58215
lfemur 0 0 0
ltibia 0
lfoot 0 0
ltoes 0
1273
root 1.98531 18.8993 -4.3401 -3.64878 -11.9269 2.18931
lowerback 6.25247 0.815063 -2.94552
upperback 0.867284 0.8686 -0.499285
thorax -2.64711 0.457902 1.06552
lowerneck -8.47688 -6.00802 -9.36072
upperneck 13.4734 -7.7592 6.19282
head 6.08364 -3.81796 2.85328
rclavicle 2.52061e-014 -2.65874e-015
rhumerus -25.9959 38.816 -91.8939
rradius 93.6975
rwrist -4.20994
rhand -44.2489 9.81101
rfingers 7.12502
rthumb -17.0608 -19.4599
lclavicle 2.52061e-014 -2.65874e-015
lhumerus -14.6308 -50.2768 79.3479
lradius 106.401
lwrist -29.9244
lhand -20.132 42.3459
lfingers 7.12502
lthumb 6.21235 72.2348
rfemur 4.60333 20.455 16.1014
rtibia 11.7918
rfoot -12.3698 -19.9004
rtoes -7.50067
lfemur 0 0 0
ltibia 0
lfoot 0 0
ltoes 0
1274
root 1.98684 18.8992 -4.33987 -3.65275 -11.8769 2.16432
lowerback 6.28459 0.795931 -2.88255
upperback 0.856891 0.845869 -0.505252
thorax -2.67387 0.446379 1.02553
lowerneck -8.52846 -5.99542 -9.37516
upperneck 13.5768 -7.74815 6.24447
head 6.12677 -3.80908 2.87123
rclavicle -1.44057e-014 -4.22417e-016
rhumerus -26.0574 38.8747 -91.9995
rradius 93.7645
rwrist -4.02669
rhand -44.3343 9.19801
rfingers 7.12502
rthumb -17.143 -20.0657
lclavicle -1.44057e-014 -4.22417e-016
lhumerus -14.2676 -50.2572 79.0994
lradius 106.479
lwrist -30.3795
lhand -19.8827 43.2727
lfingers 7.12502
lthumb 6.45306 73.1544
rfemur 4.668 20.4165 16.1296
rtibia 11.7206
rfoot -12.3652 -19.8977
rtoes -7.47373
lfemur 0 0 0
ltibia 0
lfoot 0 0
ltoes 0
1275
root 1.98733 18.8986 -4.33676 -3.69872 -11.8585 2.17654
lowerback 6.3181 0.788527 -2.84966
upperback 0.853747 0.836367 -0.52587
thorax -2.6947 0.441501 0.986217
lowerneck -8.62041 -5.9765 -9.42863
upperneck 13.7475 -7.72888 6.33757
head 6.20062 -3.79466 2.90815
rclavicle -2.92276e-015 -4.02539e-015
rhumerus -26.0901 38.9063 -92.1037
rradius 93.8013
rwrist -3.64979
rhand -44.5388 9.24846
rfingers 7.12502
rthumb -17.3398 -19.998
lclavicle -2.92276e-015 -4.02539e-015
lhumerus -13.8899 -50.2775 78.8752
lradius 106.466
lwrist -30.9228
lhand -19.5473 43.8247
lfingers 7.12502
lthumb 6.77683 73.6962
rfemur 4.75521 20.3904 16.1325
rtibia 11.685
rfoot -12.3681 -19.887
rtoes -7.46176
lfemur 0 0 0
ltibia 0
lfoot 0 0
ltoes 0
1276
root 1.98726 18.8983 -4.33636 -3.73725 -11.8207 2.17673
lowerback 6.33402 0.794791 -2.83413
upperback 0.873756 0.84545 -0.529863
thorax -2.68301 0.445512 0.972576
lowerneck -8.64843 -6.0071 -9.38773
upperneck 13.8016 -7.76458 6.26116
head 6.22092 -3.81489 2.87273
rclavicle -1.56287e-014 9.44227e-016
rhumerus -26.0063 38.9201 -92.1167
rradius 93.7731
rwrist -3.1153
rhand -44.8048 9.70438
rfingers 7.12502
rthumb -17.5958 -19.5194
lclavicle -1.56287e-014 9.44227e-016
lhumerus -13.4575 -50.3523 78.6857
lradius 106.401
lwrist -31.5017
lhand -19.2242 44.2332
lfingers 7.12502
lthumb 7.08869 74.0945
rfemur 4.82133 20.3742 16.1544
rtibia 11.6717
rfoot -12.3643 -19.9045
rtoes -7.52843
lfemur 0 0 0
ltibia 0
lfoot 0 0
ltoes 0
1277
root 1.98907 18.8983 -4.33544 -3.7387 -11.7448 2.21027
lowerback 6.27748 0.787948 -2.81971
upperback 0.880173 0.83901 -0.548014
thorax -2.64406 0.441594 0.947104
lowerneck -8.55633 -6.03549 -9.41424
upperneck 13.7934 -7.80808 6.26393
head 6.2073 -3.83895 2.87618
rclavicle -1.88457e-015 4.47266e-016
rhumerus -25.9522 38.9968 -92.145
rradius 93.7413
rwrist -2.59134
rhand -45.0191 9.84856
rfingers 7.12502
rthumb -17.802 -19.3566
lclavicle -1.88457e-015 4.47266e-016
lhumerus -13.0723 -50.42 78.5421
lradius 106.345
lwrist -31.8705
lhand -18.9488 44.7165
lfingers 7.12502
lthumb 7.35456 74.5687
rfemur 4.83699 20.2917 16.1057
rtibia 11.6481
rfoot -12.3281 -19.9037
rtoes -7.71268
lfemur 0 0 0
ltibia 0
lfoot 0 0
ltoes 0
1278
root 1.99229 18.8995 -4.33325 -3.62816 -11.5693 2.24567
lowerback 6.10948 0.747287 -2.7842
upperback 0.857758 0.792268 -0.574608
thorax -2.57064 0.417316 0.90563
lowerneck -8.55041 -6.05347 -9.49775
upperneck 13.8944 -7.84163 6.36294
head 6.2483 -3.85289 2.91767
rclavicle 1.77221e-014 4.39811e-015
rhumerus -25.969 39.0579 -92.1926
rradius 93.7591
rwrist -2.04681
rhand -45.1444 9.69812
rfingers 7.12502
rthumb -17.9226 -19.496
lclavicle 1.77221e-014 4.39811e-015
lhumerus -12.6559 -50.5057 78.3693
lradius 106.237
lwrist -32.1565
lhand -18.4647 45.1874
lfingers 7.12502
lthumb 7.82186 75.0227
rfemur 4.74648 20.1726 16.0114
rtibia 11.6204
rfoot -12.3496 -19.9586
rtoes -7.82903
lfemur 0 0 0
ltibia 0
lfoot 0 0
ltoes 0
1279
root 1.99416 18.9023 -4.33155 -3.46075 -11.3466 2.20497
lowerback 5.92941 0.680005 -2.7071
upperback 0.814154 0.713798 -0.562505
thorax -2.51125 0.377404 0.883034
lowerneck -8.54536 -6.06372 -9.56681
upperneck 13.9853 -7.85577 6.39647
head 6.28164 -3.86132 2.93781
rclavicle 1.45486e-014 4.47266e-015
rhumerus -25.9883 39.127 -92.2197
rradius 93.763
rwrist -1.46398
rhand -45.0131 9.79434
rfingers 7.12502
rthumb -17.7962 -19.4113
lclavicle 1.45486e-014 4.47266e-015
lhumerus -12.3158 -50.5953 78.2506
lradius 106.121
lwrist -32.5899
lhand -18.0467 46.0015
lfingers 7.12502
lthumb 8.22522 75.8214
rfemur 4.63459 20.1212 16.0141
rtibia 11.598
rfoot -12.7755 -20.1109
rtoes -6.67409
lfemur 0 0 0
ltibia 0
lfoot 0 0
ltoes 0
1280
root 1.99278 18.9042 -4.33085 -3.43056 -11.2441 2.13372
lowerback 5.93315 0.644705 -2.62232
upperback 0.773669 0.671899 -0.54658
thorax -2.5528 0.356662 0.854977
lowerneck -8.50785 -6.05459 -9.59682
upperneck 14.0933 -7.84698 6.39116
head 6.30969 -3.86026 2.94236
rclavicle 9.30017e-015 8.54774e-015
rhumerus -25.9882 39.2283 -92.2893
rradius 93.734
rwrist -0.955615
rhand -44.8647 10.1335
rfingers 7.12502
rthumb -17.6534 -19.0851
lclavicle 9.30017e-015 8.54774e-015
lhumerus -12.0565 -50.6879 78.1362
lradius 106.041
lwrist -33.0713
lhand -17.9532 47.1444
lfingers 7.12502
lthumb 8.31549 76.9607
rfemur 4.68495 20.1219 16.1181
rtibia 11.5541
rfoot -13.4793 -20.2044
rtoes -4.57471
lfemur 0 0 0
ltibia 0
lfoot 0 0
ltoes 0
1281
root 1.99087 18.9031 -4.3305 -3.49262 -11.2268 2.10875
lowerback 6.00333 0.653013 -2.57653
upperback 0.766354 0.683176 -0.555758
thorax -2.59934 0.362343 0.818159
lowerneck -8.52013 -6.06173 -9.57181
upperneck 14.2566 -7.85944 6.34228
head 6.36171 -3.86894 2.92049
rclavicle -3.08272e-016 2.73329e-016
rhumerus -25.9358 39.3066 -92.3637
rradius 93.7085
rwrist -0.48672
rhand -45.0481 10.1353
rfingers 7.12502
rthumb -17.8299 -19.0673
lclavicle -3.08272e-016 2.73329e-016
lhumerus -11.649 -50.8209 77.9055
lradius 105.923
lwrist -33.4448
lhand -18.0335 47.9899
lfingers 7.12502
lthumb 8.23804 77.8093
rfemur 4.82147 20.1356 16.1901
rtibia 11.4703
rfoot -13.8199 -20.2139
rtoes -3.62848
lfemur 0 0 0
ltibia 0
lfoot 0 0
ltoes 0
1282
root 1.99071 18.9011 -4.32761 -3.51913 -11.198 2.1273
lowerback 5.974 0.665421 -2.55435
upperback 0.764924 0.701749 -0.568783
thorax -2.5846 0.371186 0.79108
lowerneck -8.48232 -6.0807 -9.57405
upperneck 14.3571 -7.88485 6.28881
head 6.38726 -3.88641 2.90182
rclavicle -1.85615e-014 -2.18663e-015
rhumerus -25.9172 39.4118 -92.4311
rradius 93.7155
rwrist 0.113744
rhand -45.4016 9.5758
rfingers 7.12502
rthumb -18.1701 -19.5955
lclavicle -1.85615e-014 -2.18663e-015
lhumerus -11.1915 -50.9651 77.6934
lradius 105.733
lwrist -33.7944
lhand -18.3458 48.3851
lfingers 7.12502
lthumb 7.9366 78.2161
rfemur 4.90089 20.1481 16.1805
rtibia 11.3816
rfoot -12.7822 -20.2522
rtoes -6.38794
lfemur 0 0 0
ltibia 0
lfoot 0 0
ltoes 0
1283
root 1.98982 18.9007 -4.32559 -3.50243 -11.1657 2.06956
lowerback 5.92062 0.664129 -2.47606
upperback 0.760668 0.70746 -0.546615
thorax -2.55864 0.373169 0.770084
lowerneck -8.47598 -6.09131 -9.62482
upperneck 14.4482 -7.89197 6.25898
head 6.41679 -3.89521 2.89944
rclavicle 2.52775e-014 -1.28962e-014
rhumerus -25.9271 39.5674 -92.4832
rradius 93.7766
rwrist 0.646831
rhand -45.5259 9.26561
rfingers 7.12502
rthumb -18.2897 -19.8945
lclavicle 2.52775e-014 -1.28962e-014
lhumerus -10.7347 -51.0893 77.502
lradius 105.515
lwrist -34.0876
lhand -18.596 49.0436
lfingers 7.12502
lthumb 7.69514 78.8836
rfemur 4.94141 20.1631 16.2513
rtibia 11.3052
rfoot -12.3669 -20.3064
rtoes -7.09868
lfemur 0 0 0
ltibia 0
lfoot 0 0
ltoes 0
